<svg width="954" height="572" viewBox="0 0 954 572" fill="none" xmlns="http://www.w3.org/2000/svg">
<g filter="url(#filter0_d_1176_1776)">
<path fill-rule="evenodd" clip-rule="evenodd" d="M-10.5791 8.24142C-2.24967 4.28277 7.17685 1.91488 17.7007 1.1379C28.2245 0.360917 39.8107 0.67662 52.4594 2.08505C64.5918 3.80319 77.4937 6.27074 91.1652 9.48764C104.985 12.2692 119.134 15.8922 133.609 20.3567C148.234 24.3859 163.226 28.5407 178.585 32.8211C193.945 37.1015 209.269 40.8839 224.559 44.168C239.7 47.8875 254.806 51.1088 269.877 53.832C284.73 55.9943 299.181 57.5326 313.229 58.4473C327.426 58.9267 341.296 58.5647 354.838 57.3612C368.38 56.1577 381.411 54.0499 393.93 51.0379C406.667 48.5869 418.928 45.7297 430.713 42.4664C442.646 38.7678 454.138 35.1612 465.187 31.6467C476.386 27.6968 487.252 24.1194 497.786 20.9146C508.101 17.1487 518.192 14.0358 528.061 11.5759C538.078 8.68078 547.798 6.65618 557.219 5.50233C566.422 3.78751 575.437 3.22378 584.263 3.81113C593.239 3.96314 601.841 5.20354 610.072 7.53219C618.67 9.98648 626.787 13.2486 634.422 17.3186C642.276 21.9495 649.722 27.1706 656.762 32.9819C663.802 38.7932 670.618 45.2573 677.211 52.3744C683.655 59.9269 689.583 67.7892 694.995 75.9611C700.625 84.6939 705.923 93.7992 710.888 103.277C715.485 112.629 719.75 122.354 723.683 132.451C727.248 142.423 730.481 152.767 733.381 163.484C735.914 174.075 738.188 184.82 740.205 195.721C741.854 206.496 742.987 217.581 743.603 228.975C744.736 240.06 745.611 251.299 746.228 262.694C746.844 274.088 747.461 285.483 748.078 296.877C748.546 308.707 749.197 320.599 750.032 332.554C751.016 344.074 752.293 355.938 753.863 368.144C755.582 379.916 757.852 391.875 760.672 404.024C763.126 416.046 766.572 428.165 771.011 440.381C774.934 452.906 779.924 465.31 785.982 477.592C791.672 489.749 798.354 502.003 806.03 514.353C813.19 527.012 821.049 539.425 829.608 551.591C838.019 564.192 846.687 576.638 855.614 588.929C864.024 601.531 872.509 613.914 881.069 626.08C889.479 638.681 897.522 651.156 905.198 663.506C912.506 675.731 919.263 687.766 925.47 699.614C931.527 711.896 936.592 724.083 940.663 736.172C944.884 747.827 947.67 759.477 949.022 771.123C950.224 783.203 949.957 794.782 948.221 805.858C946.852 817.059 944.123 828.039 940.033 838.796C935.577 849.428 930.201 859.746 923.908 869.749C917.247 879.627 909.742 888.973 901.394 897.788C892.826 906.041 883.599 913.826 873.711 921.141C863.823 928.457 853.24 934.806 841.963 940.187C830.685 945.569 819.079 950.109 807.146 953.807C794.845 957.38 782.475 959.957 770.035 961.537C757.376 962.557 744.649 962.58 731.851 961.607C718.686 960.508 705.635 958.476 692.699 955.51C679.762 952.545 666.79 949.081 653.784 945.119C640.778 941.157 627.92 936.76 615.212 931.927C602.354 927.53 589.497 923.133 576.639 918.735C563.782 914.338 550.959 910.439 538.171 907.038C525.9 903.327 513.514 900.55 501.014 898.706C488.663 896.427 476.491 895.425 464.498 895.699C452.505 895.974 440.874 897.588 429.606 900.542C417.821 903.805 406.474 908.19 395.563 913.697C384.653 919.204 373.996 925.77 363.592 933.396C352.969 940.46 342.674 948.366 332.707 957.113C322.889 965.425 313.438 973.862 304.355 982.426C295.271 990.989 286.52 999.179 278.102 1007C269.684 1014.82 261.489 1021.98 253.517 1028.49C246.062 1034.7 238.904 1040.03 232.044 1044.49C225.333 1048.51 218.885 1051.17 212.7 1052.46C207.031 1053.44 201.441 1052.99 195.931 1051.1C190.937 1048.91 186.206 1045.34 181.737 1040.41C176.902 1035.35 172.438 1029.21 168.347 1021.98C164.256 1014.74 160.021 1006.73 155.642 997.937C151.63 989.272 147.474 979.827 143.174 969.605C139.093 959.943 134.793 949.72 130.274 938.936C125.607 928.587 120.573 918.113 115.171 907.514C110.136 897.039 104.585 886.875 98.5179 877.02C92.4508 867.165 85.7931 857.838 78.5447 849.038C71.2962 840.238 63.7152 831.81 55.8017 823.755C48.2555 815.826 40.3766 808.269 32.1653 801.084C23.954 793.9 15.6682 786.933 7.30804 780.184C-0.903266 773 -8.82171 766.159 -16.4472 759.661C-24.44 753.037 -32.0656 746.539 -39.3237 740.167C-46.0656 733.485 -52.5495 726.649 -58.7751 719.657C-64.6334 712.791 -69.7918 705.678 -74.2503 698.319C-78.5599 690.524 -82.1695 682.482 -85.0793 674.193C-87.6217 666.03 -89.3898 657.402 -90.3835 648.31C-91.3772 639.218 -91.5965 629.662 -91.0416 619.64C-90.4866 609.619 -89.5991 599.225 -88.379 588.459C-86.6427 577.383 -84.7574 565.872 -82.7233 553.926C-80.6893 541.979 -78.5061 529.597 -76.1743 516.78C-73.6936 503.528 -71.5057 489.932 -69.6108 475.993C-67.1996 461.744 -65.0815 447.152 -63.2561 432.216C-61.6493 416.72 -60.3353 400.881 -59.3143 384.698C-58.2933 368.515 -57.6746 351.708 -57.4578 334.277C-57.7574 317.157 -57.9824 299.818 -58.1331 282.262C-58.6511 264.58 -59.169 246.899 -59.687 229.217C-60.3539 211.971 -60.7279 195.067 -60.8089 178.508C-60.89 161.948 -60.5688 146.012 -59.8456 130.7C-58.755 115.513 -57.2276 101.448 -55.263 88.5053C-53.1496 75.1271 -50.2319 62.9966 -46.5099 52.1136C-42.9368 41.6659 -38.2664 32.8091 -32.4989 25.543C-26.215 17.9673 -18.9085 12.2001 -10.5791 8.24142Z" fill="#215E88"/>
</g>
<defs>
<filter id="filter0_d_1176_1776" x="-95.3399" y="0.723511" width="1049.1" height="1060.24" filterUnits="userSpaceOnUse" color-interpolation-filters="sRGB">
<feFlood flood-opacity="0" result="BackgroundImageFix"/>
<feColorMatrix in="SourceAlpha" type="matrix" values="0 0 0 0 0 0 0 0 0 0 0 0 0 0 0 0 0 0 127 0" result="hardAlpha"/>
<feOffset dy="4"/>
<feGaussianBlur stdDeviation="2"/>
<feComposite in2="hardAlpha" operator="out"/>
<feColorMatrix type="matrix" values="0 0 0 0 0 0 0 0 0 0 0 0 0 0 0 0 0 0 0.05 0"/>
<feBlend mode="normal" in2="BackgroundImageFix" result="effect1_dropShadow_1176_1776"/>
<feBlend mode="normal" in="SourceGraphic" in2="effect1_dropShadow_1176_1776" result="shape"/>
</filter>
</defs>
</svg>
